<svg id="visual" viewBox="0 0 900 600" width="900" height="600" xmlns="http://www.w3.org/2000/svg" xmlns:xlink="http://www.w3.org/1999/xlink" version="1.1"><rect width="900" height="600" fill="#fad29c"></rect><g><g transform="translate(280 286)"><path d="M0 -32L27.7 -16L27.7 16L0 32L-27.7 16L-27.7 -16Z" fill="none" stroke="#cacabd" stroke-width="1"></path></g><g transform="translate(581 596)"><path d="M0 -16L13.9 -8L13.9 8L0 16L-13.9 8L-13.9 -8Z" fill="none" stroke="#cacabd" stroke-width="1"></path></g><g transform="translate(126 575)"><path d="M0 -18L15.6 -9L15.6 9L0 18L-15.6 9L-15.6 -9Z" fill="none" stroke="#cacabd" stroke-width="1"></path></g><g transform="translate(837 295)"><path d="M0 -18L15.6 -9L15.6 9L0 18L-15.6 9L-15.6 -9Z" stroke="#cacabd" fill="none" stroke-width="1"></path></g><g transform="translate(378 577)"><path d="M0 -30L26 -15L26 15L0 30L-26 15L-26 -15Z" stroke="#cacabd" fill="none" stroke-width="1"></path></g><g transform="translate(238 187)"><path d="M0 -15L13 -7.5L13 7.5L0 15L-13 7.5L-13 -7.5Z" stroke="#cacabd" fill="none" stroke-width="1"></path></g><g transform="translate(340 239)"><path d="M0 -28L24.2 -14L24.2 14L0 28L-24.2 14L-24.2 -14Z" stroke="#cacabd" fill="none" stroke-width="1"></path></g><g transform="translate(818 134)"><path d="M0 -27L23.4 -13.5L23.4 13.5L0 27L-23.4 13.5L-23.4 -13.5Z" stroke="#cacabd" fill="none" stroke-width="1"></path></g><g transform="translate(455 557)"><path d="M0 -22L19.1 -11L19.1 11L0 22L-19.1 11L-19.1 -11Z" stroke="#cacabd" fill="none" stroke-width="1"></path></g><g transform="translate(59 355)"><path d="M0 -19L16.5 -9.5L16.5 9.5L0 19L-16.5 9.5L-16.5 -9.5Z" stroke="#cacabd" fill="none" stroke-width="1"></path></g><g transform="translate(888 227)"><path d="M0 -20L17.3 -10L17.3 10L0 20L-17.3 10L-17.3 -10Z" stroke="#cacabd" fill="none" stroke-width="1"></path></g><g transform="translate(341 503)"><path d="M0 -24L20.8 -12L20.8 12L0 24L-20.8 12L-20.8 -12Z" stroke="#cacabd" fill="none" stroke-width="1"></path></g><g transform="translate(201 261)"><path d="M0 -30L26 -15L26 15L0 30L-26 15L-26 -15Z" stroke="#cacabd" fill="none" stroke-width="1"></path></g><g transform="translate(52 557)"><path d="M0 -19L16.5 -9.5L16.5 9.5L0 19L-16.5 9.5L-16.5 -9.5Z" stroke="#cacabd" fill="none" stroke-width="1"></path></g><g transform="translate(73 23)"><path d="M0 -29L25.1 -14.5L25.1 14.5L0 29L-25.1 14.5L-25.1 -14.5Z" stroke="#cacabd" fill="none" stroke-width="1"></path></g><g transform="translate(566 482)"><path d="M0 -30L26 -15L26 15L0 30L-26 15L-26 -15Z" stroke="#cacabd" fill="none" stroke-width="1"></path></g><g transform="translate(583 272)"><path d="M0 -24L20.8 -12L20.8 12L0 24L-20.8 12L-20.8 -12Z" stroke="#cacabd" fill="none" stroke-width="1"></path></g><g transform="translate(543 45)"><path d="M0 -24L20.8 -12L20.8 12L0 24L-20.8 12L-20.8 -12Z" stroke="#cacabd" fill="none" stroke-width="1"></path></g><g transform="translate(451 79)"><path d="M0 -25L21.7 -12.5L21.7 12.5L0 25L-21.7 12.5L-21.7 -12.5Z" stroke="#cacabd" fill="none" stroke-width="1"></path></g><g transform="translate(445 300)"><path d="M0 -18L15.6 -9L15.6 9L0 18L-15.6 9L-15.6 -9Z" stroke="#cacabd" fill="none" stroke-width="1"></path></g><g transform="translate(810 557)"><path d="M0 -30L26 -15L26 15L0 30L-26 15L-26 -15Z" stroke="#cacabd" fill="none" stroke-width="1"></path></g><g transform="translate(293 421)"><path d="M0 -24L20.8 -12L20.8 12L0 24L-20.8 12L-20.8 -12Z" stroke="#cacabd" fill="none" stroke-width="1"></path></g><g transform="translate(833 406)"><path d="M0 -17L14.7 -8.5L14.7 8.5L0 17L-14.7 8.5L-14.7 -8.5Z" stroke="#cacabd" fill="none" stroke-width="1"></path></g><g transform="translate(610 90)"><path d="M0 -19L16.5 -9.5L16.5 9.5L0 19L-16.5 9.5L-16.5 -9.5Z" stroke="#cacabd" fill="none" stroke-width="1"></path></g><g transform="translate(636 473)"><path d="M0 -17L14.7 -8.5L14.7 8.5L0 17L-14.7 8.5L-14.7 -8.5Z" stroke="#cacabd" fill="none" stroke-width="1"></path></g><g transform="translate(119 112)"><path d="M0 -17L14.7 -8.5L14.7 8.5L0 17L-14.7 8.5L-14.7 -8.5Z" stroke="#cacabd" fill="none" stroke-width="1"></path></g><g transform="translate(515 116)"><path d="M0 -17L14.7 -8.5L14.7 8.5L0 17L-14.7 8.5L-14.7 -8.5Z" stroke="#cacabd" fill="none" stroke-width="1"></path></g><g transform="translate(871 589)"><path d="M0 -27L23.4 -13.5L23.4 13.5L0 27L-23.4 13.5L-23.4 -13.5Z" stroke="#cacabd" fill="none" stroke-width="1"></path></g><g transform="translate(765 243)"><path d="M0 -22L19.1 -11L19.1 11L0 22L-19.1 11L-19.1 -11Z" stroke="#cacabd" fill="none" stroke-width="1"></path></g><g transform="translate(675 162)"><path d="M0 -20L17.3 -10L17.3 10L0 20L-17.3 10L-17.3 -10Z" stroke="#cacabd" fill="none" stroke-width="1"></path></g><g transform="translate(503 257)"><path d="M0 -16L13.9 -8L13.9 8L0 16L-13.9 8L-13.9 -8Z" stroke="#cacabd" fill="none" stroke-width="1"></path></g><g transform="translate(411 226)"><path d="M0 -27L23.4 -13.5L23.4 13.5L0 27L-23.4 13.5L-23.4 -13.5Z" stroke="#cacabd" fill="none" stroke-width="1"></path></g><g transform="translate(221 476)"><path d="M0 -17L14.7 -8.5L14.7 8.5L0 17L-14.7 8.5L-14.7 -8.5Z" stroke="#cacabd" fill="none" stroke-width="1"></path></g><g transform="translate(807 44)"><path d="M0 -25L21.7 -12.5L21.7 12.5L0 25L-21.7 12.5L-21.7 -12.5Z" stroke="#cacabd" fill="none" stroke-width="1"></path></g><g transform="translate(716 60)"><path d="M0 -24L20.8 -12L20.8 12L0 24L-20.8 12L-20.8 -12Z" stroke="#cacabd" fill="none" stroke-width="1"></path></g><g transform="translate(748 130)"><path d="M0 -16L13.9 -8L13.9 8L0 16L-13.9 8L-13.9 -8Z" stroke="#cacabd" fill="none" stroke-width="1"></path></g><g transform="translate(549 185)"><path d="M0 -16L13.9 -8L13.9 8L0 16L-13.9 8L-13.9 -8Z" stroke="#cacabd" fill="none" stroke-width="1"></path></g><g transform="translate(103 240)"><path d="M0 -21L18.2 -10.5L18.2 10.5L0 21L-18.2 10.5L-18.2 -10.5Z" stroke="#cacabd" fill="none" stroke-width="1"></path></g><g transform="translate(19 243)"><path d="M0 -25L21.7 -12.5L21.7 12.5L0 25L-21.7 12.5L-21.7 -12.5Z" stroke="#cacabd" fill="none" stroke-width="1"></path></g><g transform="translate(579 358)"><path d="M0 -25L21.7 -12.5L21.7 12.5L0 25L-21.7 12.5L-21.7 -12.5Z" stroke="#cacabd" fill="none" stroke-width="1"></path></g><g transform="translate(864 500)"><path d="M0 -23L19.9 -11.5L19.9 11.5L0 23L-19.9 11.5L-19.9 -11.5Z" stroke="#cacabd" fill="none" stroke-width="1"></path></g><g transform="translate(310 165)"><path d="M0 -23L19.9 -11.5L19.9 11.5L0 23L-19.9 11.5L-19.9 -11.5Z" stroke="#cacabd" fill="none" stroke-width="1"></path></g><g transform="translate(394 109)"><path d="M0 -16L13.9 -8L13.9 8L0 16L-13.9 8L-13.9 -8Z" stroke="#cacabd" fill="none" stroke-width="1"></path></g><g transform="translate(731 367)"><path d="M0 -26L22.5 -13L22.5 13L0 26L-22.5 13L-22.5 -13Z" stroke="#cacabd" fill="none" stroke-width="1"></path></g><g transform="translate(371 414)"><path d="M0 -17L14.7 -8.5L14.7 8.5L0 17L-14.7 8.5L-14.7 -8.5Z" stroke="#cacabd" fill="none" stroke-width="1"></path></g><g transform="translate(202 382)"><path d="M0 -21L18.2 -10.5L18.2 10.5L0 21L-18.2 10.5L-18.2 -10.5Z" stroke="#cacabd" fill="none" stroke-width="1"></path></g><g transform="translate(323 89)"><path d="M0 -28L24.2 -14L24.2 14L0 28L-24.2 14L-24.2 -14Z" stroke="#cacabd" fill="none" stroke-width="1"></path></g><g transform="translate(791 463)"><path d="M0 -29L25.1 -14.5L25.1 14.5L0 29L-25.1 14.5L-25.1 -14.5Z" stroke="#cacabd" fill="none" stroke-width="1"></path></g><g transform="translate(273 20)"><path d="M0 -15L13 -7.5L13 7.5L0 15L-13 7.5L-13 -7.5Z" stroke="#cacabd" fill="none" stroke-width="1"></path></g><g transform="translate(430 485)"><path d="M0 -27L23.4 -13.5L23.4 13.5L0 27L-23.4 13.5L-23.4 -13.5Z" stroke="#cacabd" fill="none" stroke-width="1"></path></g><g transform="translate(470 401)"><path d="M0 -28L24.2 -14L24.2 14L0 28L-24.2 14L-24.2 -14Z" stroke="#cacabd" fill="none" stroke-width="1"></path></g><g transform="translate(734 301)"><path d="M0 -28L24.2 -14L24.2 14L0 28L-24.2 14L-24.2 -14Z" stroke="#cacabd" fill="none" stroke-width="1"></path></g><g transform="translate(142 358)"><path d="M0 -29L25.1 -14.5L25.1 14.5L0 29L-25.1 14.5L-25.1 -14.5Z" stroke="#cacabd" fill="none" stroke-width="1"></path></g><g transform="translate(244 570)"><path d="M0 -15L13 -7.5L13 7.5L0 15L-13 7.5L-13 -7.5Z" stroke="#cacabd" fill="none" stroke-width="1"></path></g><g transform="translate(41 448)"><path d="M0 -22L19.1 -11L19.1 11L0 22L-19.1 11L-19.1 -11Z" stroke="#cacabd" fill="none" stroke-width="1"></path></g><g transform="translate(637 391)"><path d="M0 -18L15.6 -9L15.6 9L0 18L-15.6 9L-15.6 -9Z" stroke="#cacabd" fill="none" stroke-width="1"></path></g><g transform="translate(146 7)"><path d="M0 -29L25.1 -14.5L25.1 14.5L0 29L-25.1 14.5L-25.1 -14.5Z" stroke="#cacabd" fill="none" stroke-width="1"></path></g><g transform="translate(703 593)"><path d="M0 -15L13 -7.5L13 7.5L0 15L-13 7.5L-13 -7.5Z" stroke="#cacabd" fill="none" stroke-width="1"></path></g><g transform="translate(824 210)"><path d="M0 -20L17.3 -10L17.3 10L0 20L-17.3 10L-17.3 -10Z" stroke="#cacabd" fill="none" stroke-width="1"></path></g><g transform="translate(159 457)"><path d="M0 -24L20.8 -12L20.8 12L0 24L-20.8 12L-20.8 -12Z" stroke="#cacabd" fill="none" stroke-width="1"></path></g><g transform="translate(683 238)"><path d="M0 -19L16.5 -9.5L16.5 9.5L0 19L-16.5 9.5L-16.5 -9.5Z" stroke="#cacabd" fill="none" stroke-width="1"></path></g><g transform="translate(892 87)"><path d="M0 -24L20.8 -12L20.8 12L0 24L-20.8 12L-20.8 -12Z" stroke="#cacabd" fill="none" stroke-width="1"></path></g><g transform="translate(494 493)"><path d="M0 -19L16.5 -9.5L16.5 9.5L0 19L-16.5 9.5L-16.5 -9.5Z" stroke="#cacabd" fill="none" stroke-width="1"></path></g><g transform="translate(31 177)"><path d="M0 -30L26 -15L26 15L0 30L-26 15L-26 -15Z" stroke="#cacabd" fill="none" stroke-width="1"></path></g></g></svg>